# xmcd
# 
# Track frame offsets:
#     150
#     15145
#     26394
#     39670
#     55552
#     72972
#     93925
#     110622
#     119560
#     130087
#     142422
#     162225
#     175530
#     192362
#     213915
#     225072
# 
# Disc length: 3183
# 
# Revision: 7
# Processed by: cddbd v1.5.2PL0 Copyright (c) Steve Scherf et al.
# Submitted via: fre:ac v1.0.31
# 
DISCID=ca0c6d10
DTITLE=Tõnu Aare and Apelsin - Apelsini boogie
DYEAR=1999
DGENRE=Pop
TTITLE0=Apelsini boogie
TTITLE1=Mootorratta lugu
TTITLE2=Kodu ja ristikhein
TTITLE3=Jaaniöö - imedeöö
TTITLE4=Illusioon
TTITLE5=Laululilled
TTITLE6=Kambri blues
TTITLE7=Torneus
TTITLE8=Roolivelled
TTITLE9=Kui ülemus joodeldab
TTITLE10=Saab, saab (Vana Joe)
TTITLE11=Lahkuminek
TTITLE12=Matkalaul
TTITLE13=Sügistuuled
TTITLE14=Tuukrilaul
TTITLE15=Aeg ei peatu
EXTD=
EXTT0=
EXTT1=
EXTT2=
EXTT3=
EXTT4=
EXTT5=
EXTT6=
EXTT7=
EXTT8=
EXTT9=
EXTT10=
EXTT11=
EXTT12=
EXTT13=
EXTT14=
EXTT15=
PLAYORDER=
